<?xml version="1.0" standalone="no"?>
<!DOCTYPE svg PUBLIC "-//W3C//DTD SVG 20010904//EN"
 "http://www.w3.org/TR/2001/REC-SVG-20010904/DTD/svg10.dtd">
<svg version="1.0" xmlns="http://www.w3.org/2000/svg"
 width="600.000000pt" height="200.000000pt" viewBox="0 0 600.000000 200.000000"
 preserveAspectRatio="xMidYMid meet">

<g transform="translate(0.000000,200.000000) scale(0.100000,-0.100000)"
fill="#000000" stroke="none">
<path d="M780 1970 c-212 -45 -368 -127 -518 -274 -35 -33 -78 -79 -95 -101
-18 -22 6 -2 53 45 178 178 373 273 623 301 451 50 902 -230 1056 -656 44
-123 62 -222 62 -354 0 -331 -137 -605 -411 -824 -30 -24 -27 -23 15 4 79 52
212 186 274 280 64 95 112 201 143 317 28 108 35 308 14 428 -75 436 -419 774
-856 844 -99 15 -264 11 -360 -10z"/>
<path d="M1913 1913 c-21 -8 -15 -25 6 -18 31 9 33 -11 6 -43 -14 -16 -25 -33
-25 -36 0 -3 16 -6 35 -6 19 0 35 5 35 10 0 6 -10 10 -22 10 l-21 0 23 25 c19
21 22 30 14 43 -12 18 -31 24 -51 15z"/>
<path d="M2006 1887 c-31 -40 -33 -57 -7 -57 11 0 21 -6 24 -12 3 -10 9 -9 22
4 11 10 14 21 9 30 -5 7 -7 23 -6 35 5 35 -15 35 -42 0z m14 -27 c0 -5 -5 -10
-11 -10 -5 0 -7 5 -4 10 3 6 8 10 11 10 2 0 4 -4 4 -10z"/>
<path d="M2108 1915 c-4 -4 0 -18 8 -30 14 -21 14 -26 -1 -49 -18 -28 -6 -36
15 -11 12 14 15 14 31 -1 25 -23 35 -11 15 17 -14 21 -14 25 -1 46 13 19 13
23 1 23 -7 0 -17 -7 -20 -16 -5 -14 -9 -13 -24 6 -9 12 -20 18 -24 15z"/>
<path d="M2258 1903 c26 -5 28 -23 7 -63 -12 -23 -13 -30 -3 -30 11 0 48 71
48 93 0 4 -17 6 -37 6 -24 -1 -29 -3 -15 -6z"/>
<path d="M822 1879 c-141 -18 -302 -80 -421 -162 -126 -86 -271 -267 -329
-410 -67 -165 -65 -149 -69 -755 l-4 -553 553 3 553 4 90 28 c381 117 635 414
685 801 13 107 2 250 -30 363 -125 449 -566 741 -1028 681z m116 -311 c8 -8
12 -57 12 -155 l0 -143 -50 0 -50 0 0 136 c0 74 5 144 10 155 12 22 59 26 78
7z m-108 -168 l0 -130 -85 0 -85 0 0 29 c0 37 24 105 51 143 17 24 102 88 116
88 2 0 3 -58 3 -130z m216 98 c56 -39 101 -112 110 -181 l7 -47 -97 0 -96 0 0
130 c0 149 0 149 76 98z m178 -264 c20 -19 20 -29 0 -48 -13 -14 -56 -16 -313
-16 -306 0 -321 2 -321 40 0 38 15 40 321 40 257 0 300 -2 313 -16z m-69 -106
c-17 -54 -40 -91 -83 -128 l-45 -40 211 0 c183 0 212 -2 220 -16 7 -13 -12
-186 -21 -188 -1 -1 -11 -6 -22 -12 -17 -9 -20 -23 -23 -88 -2 -43 1 -83 7
-89 13 -17 -21 -216 -40 -228 -8 -5 -210 -9 -460 -9 -345 0 -449 3 -457 13
-18 21 -36 167 -36 290 -1 108 -3 120 -22 135 -26 21 -51 157 -32 179 8 10 62
13 226 13 l216 0 -41 35 c-41 35 -83 105 -83 138 0 15 22 17 246 17 l245 0 -6
-22z m-775 -388 c17 -32 8 -131 -12 -144 -33 -20 -53 4 -56 67 -3 64 10 97 38
97 11 0 24 -9 30 -20z m1095 -84 c0 -73 -14 -96 -49 -83 -13 5 -16 21 -16 82
l0 76 33 -3 32 -3 0 -69z"/>
<path d="M454 836 c-3 -7 -4 -33 -2 -57 3 -42 5 -44 36 -47 27 -3 32 0 32 17
0 24 -10 27 -28 9 -9 -9 -12 -2 -12 31 0 38 2 42 15 31 18 -15 30 -7 22 15 -8
19 -56 20 -63 1z"/>
<path d="M534 837 c-3 -8 -4 -34 -2 -58 3 -42 5 -44 36 -47 l33 -3 -3 58 c-3
55 -4 58 -31 61 -17 2 -29 -2 -33 -11z m46 -53 c0 -19 -4 -34 -10 -34 -5 0
-10 18 -10 41 0 24 4 38 10 34 6 -3 10 -22 10 -41z"/>
<path d="M627 844 c-4 -4 -7 -31 -7 -61 0 -40 4 -53 14 -53 11 0 16 15 19 53
l3 52 2 -52 c2 -40 6 -53 17 -53 13 0 15 11 13 58 -3 53 -5 57 -28 60 -14 2
-29 0 -33 -4z"/>
<path d="M707 844 c-15 -16 -7 -56 13 -61 11 -3 20 -12 20 -20 0 -12 -3 -13
-14 -4 -11 9 -16 9 -21 1 -11 -17 9 -32 36 -28 33 4 41 57 10 65 -12 3 -21 13
-20 22 0 10 2 11 6 4 7 -20 35 -16 31 5 -3 17 -48 29 -61 16z"/>
<path d="M784 828 c3 -13 6 -40 6 -60 0 -27 4 -38 15 -38 11 0 15 12 15 45 0
25 5 45 10 45 6 0 10 7 10 15 0 10 -10 15 -31 15 -28 0 -31 -3 -25 -22z"/>
<path d="M850 790 c0 -45 3 -60 14 -60 8 0 17 12 19 28 l4 27 2 -27 c0 -17 7
-28 15 -28 11 0 15 13 14 53 -1 55 -9 67 -45 67 -21 0 -23 -4 -23 -60z m37 18
c-3 -8 -6 -5 -6 6 -1 11 2 17 5 13 3 -3 4 -12 1 -19z"/>
<path d="M934 836 c-3 -7 -4 -33 -2 -57 3 -42 5 -44 36 -47 l32 -3 0 61 c0 76
-22 79 -31 4 l-6 -49 -1 53 c-2 49 -16 69 -28 38z"/>
<path d="M1027 843 c-4 -3 -7 -30 -7 -60 0 -52 0 -53 30 -53 23 0 30 4 30 20
0 11 -4 20 -10 20 -5 0 -10 -4 -10 -10 0 -5 -4 -10 -10 -10 -5 0 -10 18 -10
40 0 38 13 54 23 28 2 -7 8 -10 12 -6 13 12 -3 38 -23 38 -10 0 -22 -3 -25 -7z"/>
<path d="M1090 835 c0 -8 5 -15 10 -15 6 0 10 -20 10 -45 0 -33 4 -45 15 -45
11 0 15 12 15 44 0 25 5 48 10 51 6 4 10 -13 10 -44 0 -39 4 -51 15 -51 12 0
15 13 15 58 l0 58 -50 2 c-39 2 -50 -1 -50 -13z"/>
<path d="M1217 844 c-4 -4 -7 -32 -7 -61 l0 -54 33 3 c32 3 32 3 32 58 0 51
-2 55 -25 58 -14 2 -29 0 -33 -4z m33 -54 c0 -22 -3 -40 -7 -40 -5 0 -7 17 -6
37 2 44 2 43 8 43 3 0 5 -18 5 -40z"/>
<path d="M1297 844 c-4 -4 -7 -31 -7 -61 0 -40 4 -53 14 -53 11 0 16 15 19 53
l3 52 2 -52 c2 -40 6 -53 17 -53 13 0 15 11 13 58 -3 53 -5 57 -28 60 -14 2
-29 0 -33 -4z"/>
<path d="M540 668 c-30 -41 -38 -74 -20 -80 12 -4 -18 -201 -32 -206 -4 -2 -8
-8 -8 -13 0 -5 41 -9 90 -9 53 0 90 4 90 10 0 6 -4 10 -9 10 -8 0 -18 43 -37
168 l-7 42 97 0 c87 0 96 2 96 19 0 14 -9 20 -32 23 -18 3 -42 9 -52 13 -14 6
-17 5 -12 -3 5 -9 -9 -12 -48 -12 -43 0 -56 -3 -56 -15 0 -8 -4 -15 -10 -15
-14 0 -12 37 3 43 7 3 5 6 -5 6 -11 1 -18 9 -18 21 0 25 7 25 66 0 26 -11 48
-19 50 -17 2 2 -23 15 -56 30 l-61 26 -29 -41z m20 -3 c0 -8 -4 -15 -10 -15
-5 0 -7 7 -4 15 4 8 8 15 10 15 2 0 4 -7 4 -15z m90 -55 c0 -5 -4 -10 -10 -10
-5 0 -10 5 -10 10 0 6 5 10 10 10 6 0 10 -4 10 -10z m30 0 c0 -5 -4 -10 -10
-10 -5 0 -10 5 -10 10 0 6 5 10 10 10 6 0 10 -4 10 -10z m30 0 c0 -5 -4 -10
-10 -10 -5 0 -10 5 -10 10 0 6 5 10 10 10 6 0 10 -4 10 -10z m30 0 c0 -5 -4
-10 -10 -10 -5 0 -10 5 -10 10 0 6 5 10 10 10 6 0 10 -4 10 -10z m50 2 c0 -4
-9 -8 -20 -8 -11 0 -20 4 -20 8 0 4 9 8 20 8 11 0 20 -4 20 -8z m-205 -58 c0
-16 4 -32 10 -36 5 -4 7 -9 5 -12 -3 -2 -16 4 -30 15 -25 19 -25 19 -5 35 17
13 18 16 5 25 -13 9 -13 10 0 6 9 -2 15 -15 15 -33z m-7 -58 c19 -6 21 -10 11
-22 -7 -8 -20 -12 -31 -8 -12 3 -17 1 -16 -6 2 -7 -3 -15 -10 -17 -10 -4 -10
2 2 26 10 19 12 31 6 31 -6 0 -8 5 -4 11 4 7 9 7 13 1 3 -5 16 -13 29 -16z
m32 -42 c0 -8 -5 -12 -10 -9 -6 4 -8 11 -5 16 9 14 15 11 15 -7z m-15 -20 c14
-9 25 -25 25 -35 0 -16 -8 -19 -50 -19 -42 0 -50 3 -50 19 0 10 10 26 23 34
28 20 23 20 52 1z"/>
<path d="M730 520 c0 -5 5 -10 10 -10 6 0 10 5 10 10 0 6 -4 10 -10 10 -5 0
-10 -4 -10 -10z"/>
<path d="M735 490 c-4 -6 -18 -10 -31 -7 -18 3 -24 0 -24 -14 0 -16 8 -19 60
-19 52 0 60 2 60 19 0 15 -5 18 -21 14 -12 -3 -25 0 -29 7 -6 9 -9 9 -15 0z"/>
<path d="M1947 1723 c-22 -21 2 -74 33 -72 9 0 6 4 -7 9 -14 6 -23 18 -23 30
0 12 9 24 23 30 21 8 21 9 1 9 -11 1 -24 -2 -27 -6z"/>
<path d="M2455 1721 c-3 -6 4 -19 16 -29 20 -19 20 -21 2 -31 -17 -10 -17 -10
0 -11 29 0 33 30 7 50 l-24 18 25 5 c22 4 22 4 2 6 -12 0 -24 -3 -28 -8z"/>
<path d="M2120 1701 c0 -27 10 -51 22 -51 6 0 6 6 -2 15 -6 8 -9 23 -5 35 4
11 2 20 -4 20 -6 0 -11 -9 -11 -19z"/>
<path d="M2820 1692 c0 -17 3 -33 8 -35 9 -6 8 50 -1 60 -4 3 -7 -8 -7 -25z"/>
<path d="M2010 1686 c0 -14 4 -27 8 -30 5 -3 6 8 4 25 -5 35 -12 38 -12 5z"/>
<path d="M2048 1690 c-7 -24 -3 -38 8 -28 3 4 4 17 2 30 l-3 23 -7 -25z"/>
<path d="M2070 1700 c0 -5 8 -14 18 -19 15 -9 15 -12 2 -21 -9 -6 -10 -10 -3
-10 21 0 27 23 9 36 -16 12 -16 13 1 17 14 4 14 5 -4 6 -13 0 -23 -3 -23 -9z"/>
<path d="M2167 1703 c-22 -21 2 -56 31 -46 13 5 17 39 4 47 -5 3 -8 -4 -8 -14
1 -11 -3 -18 -9 -17 -5 1 -10 10 -9 20 1 19 0 20 -9 10z"/>
<path d="M2231 1683 c2 -24 2 -25 6 -5 2 12 8 22 13 22 5 0 10 -10 12 -22 3
-21 4 -21 9 5 5 23 3 27 -17 27 -20 0 -24 -5 -23 -27z"/>
<path d="M2298 1685 c2 -14 6 -25 8 -25 2 0 4 11 4 25 0 14 -4 25 -9 25 -4 0
-6 -11 -3 -25z"/>
<path d="M2324 1695 c-7 -17 12 -45 29 -45 6 0 2 7 -9 15 -19 14 -18 14 4 15
24 0 29 14 10 26 -7 4 -8 3 -4 -4 4 -7 1 -12 -9 -12 -9 0 -13 5 -10 10 3 6 4
10 0 10 -3 0 -8 -7 -11 -15z"/>
<path d="M2387 1703 c-11 -10 -8 -43 4 -43 5 0 7 5 4 10 -4 6 -1 17 5 25 12
15 0 22 -13 8z"/>
<path d="M2511 1694 c0 -12 7 -28 17 -35 15 -12 16 -12 6 1 -7 8 -14 24 -17
35 -4 19 -5 19 -6 -1z"/>
<path d="M2552 1685 c0 -16 2 -22 5 -12 2 9 2 23 0 30 -3 6 -5 -1 -5 -18z"/>
<path d="M2581 1668 c0 -29 3 -37 8 -25 4 10 10 18 14 18 22 -3 27 1 27 18 0
11 -4 22 -8 25 -5 3 -8 -4 -8 -14 1 -11 -3 -19 -9 -19 -5 0 -10 9 -9 19 0 11
-3 20 -8 20 -4 0 -8 -19 -7 -42z"/>
<path d="M2647 1703 c-4 -3 -7 -22 -7 -42 1 -30 2 -33 11 -18 6 10 8 25 5 32
-6 17 9 29 24 20 7 -4 6 -14 -1 -28 -10 -20 -10 -21 5 -6 20 18 11 49 -13 49
-10 0 -21 -3 -24 -7z"/>
<path d="M2717 1703 c-22 -21 2 -56 31 -46 13 5 17 39 4 47 -5 3 -8 -4 -8 -14
1 -11 -3 -18 -9 -17 -5 1 -10 10 -9 20 1 19 0 20 -9 10z"/>
<path d="M2777 1703 c-10 -9 -8 -43 2 -43 5 0 11 11 13 25 5 24 -2 32 -15 18z"/>
<path d="M2360 1470 c0 -5 5 -10 11 -10 5 0 7 5 4 10 -3 6 -8 10 -11 10 -2 0
-4 -4 -4 -10z"/>
<path d="M2407 1456 c-9 -13 -13 -27 -9 -30 3 -4 6 -17 7 -29 0 -35 20 -35 23
1 2 17 8 32 14 32 6 0 6 6 -2 15 -9 10 -9 15 -1 15 6 0 11 5 11 10 0 19 -28
10 -43 -14z"/>
<path d="M2460 1470 c0 -5 5 -10 10 -10 6 0 10 5 10 10 0 6 -4 10 -10 10 -5 0
-10 -4 -10 -10z"/>
<path d="M2640 1460 c0 -12 -6 -20 -12 -19 -31 4 -38 -3 -38 -36 0 -19 3 -35
8 -36 65 -7 62 -9 62 53 0 32 -4 58 -10 58 -5 0 -10 -9 -10 -20z m-5 -55 c0
-10 -6 -20 -12 -22 -8 -3 -13 5 -13 22 0 17 5 25 13 23 6 -3 12 -13 12 -23z"/>
<path d="M3020 1426 c0 -30 5 -58 10 -61 6 -3 10 1 10 9 0 20 14 20 30 1 18
-21 24 -11 10 15 -9 16 -9 25 1 36 17 20 5 28 -14 9 -22 -22 -27 -19 -27 15 0
17 -4 30 -10 30 -5 0 -10 -24 -10 -54z"/>
<path d="M2106 1448 c12 -42 33 -88 39 -88 6 0 27 46 39 88 12 37 -10 25 -26
-15 l-14 -38 -13 38 c-13 39 -37 53 -25 15z"/>
<path d="M2714 1453 c3 -10 8 -31 12 -48 4 -16 9 -34 11 -38 8 -13 33 14 33
34 0 30 17 22 24 -12 3 -18 11 -29 18 -27 13 5 41 99 32 107 -7 8 -24 -21 -24
-41 0 -29 -17 -20 -23 12 -4 17 -11 30 -17 30 -6 0 -13 -13 -16 -30 -4 -16
-10 -30 -14 -30 -4 0 -10 14 -13 30 -4 17 -11 30 -17 30 -6 0 -9 -8 -6 -17z"/>
<path d="M2212 1438 c-7 -7 -12 -22 -12 -35 0 -29 44 -53 62 -35 9 9 7 12 -9
12 -12 0 -25 5 -28 10 -4 6 5 10 19 10 15 0 26 6 26 13 0 16 -20 37 -35 37 -6
0 -16 -5 -23 -12z m38 -18 c0 -5 -4 -10 -10 -10 -5 0 -10 5 -10 10 0 6 5 10
10 10 6 0 10 -4 10 -10z"/>
<path d="M2290 1408 c0 -20 5 -40 10 -43 6 -4 10 6 10 23 0 17 6 32 15 36 23
9 18 21 -10 21 -22 0 -25 -4 -25 -37z"/>
<path d="M2512 1438 c-7 -7 -12 -22 -12 -35 0 -29 44 -53 62 -35 9 9 7 12 -9
12 -12 0 -25 5 -28 10 -4 6 5 10 19 10 15 0 26 6 26 13 0 16 -20 37 -35 37 -6
0 -16 -5 -23 -12z m38 -18 c0 -5 -4 -10 -9 -10 -6 0 -13 5 -16 10 -3 6 1 10 9
10 9 0 16 -4 16 -10z"/>
<path d="M2872 1438 c-19 -19 -14 -56 10 -69 18 -10 24 -8 40 11 16 20 17 25
5 44 -17 25 -38 31 -55 14z m38 -33 c0 -26 -14 -33 -25 -15 -9 14 1 40 15 40
5 0 10 -11 10 -25z"/>
<path d="M2953 1434 c-7 -20 1 -65 12 -63 6 1 9 10 7 19 -1 9 4 23 13 30 8 7
15 15 15 19 0 12 -42 7 -47 -5z"/>
<path d="M3122 1438 c-33 -33 0 -90 41 -70 21 10 21 11 -5 11 -35 1 -37 21 -3
21 14 0 25 6 25 13 0 16 -20 37 -35 37 -6 0 -16 -5 -23 -12z m33 -18 c-3 -5
-10 -10 -16 -10 -5 0 -9 5 -9 10 0 6 7 10 16 10 8 0 12 -4 9 -10z"/>
<path d="M3200 1402 c0 -26 4 -41 10 -37 6 3 10 17 10 31 0 14 7 27 15 30 24
9 17 22 -10 20 -23 -1 -25 -5 -25 -44z"/>
<path d="M3273 1443 c-20 -7 -15 -29 10 -46 l22 -16 -24 0 c-18 -1 -22 -4 -14
-12 14 -14 53 -2 53 15 0 8 -10 21 -22 29 l-23 16 23 0 c13 1 20 5 17 11 -7
11 -22 12 -42 3z"/>
<path d="M2360 1399 c0 -24 4 -38 10 -34 6 3 10 22 10 41 0 19 -4 34 -10 34
-5 0 -10 -18 -10 -41z"/>
<path d="M2460 1400 c0 -22 5 -40 10 -40 6 0 10 18 10 40 0 22 -4 40 -10 40
-5 0 -10 -18 -10 -40z"/>
<path d="M2368 1288 c-2 -7 -1 -26 3 -43 6 -28 7 -28 9 -5 1 14 3 33 5 43 4
19 -11 24 -17 5z"/>
<path d="M2530 1291 c0 -5 -9 -11 -20 -14 -14 -3 -20 -14 -20 -31 0 -21 5 -26
25 -26 23 0 25 4 25 40 0 22 -2 40 -5 40 -3 0 -5 -4 -5 -9z m-5 -41 c0 -7 -6
-15 -12 -17 -8 -3 -13 4 -13 17 0 13 5 20 13 18 6 -3 12 -11 12 -18z"/>
<path d="M2587 1293 c-13 -13 -7 -32 13 -38 27 -9 25 -25 -2 -26 -19 -1 -20
-2 -4 -6 10 -3 23 0 30 7 8 9 6 16 -11 27 -28 19 -29 30 -5 36 14 4 14 5 1 6
-9 0 -19 -2 -22 -6z"/>
<path d="M2642 1260 c0 -25 2 -39 5 -32 3 9 9 10 17 3 10 -8 13 -3 13 19 0 23
-3 27 -13 19 -9 -8 -14 -4 -17 13 -2 13 -5 3 -5 -22z"/>
<path d="M2723 1260 c0 -25 2 -35 4 -22 2 12 2 32 0 45 -2 12 -4 2 -4 -23z"/>
<path d="M2753 1260 c0 -25 2 -35 4 -22 2 12 2 32 0 45 -2 12 -4 2 -4 -23z"/>
<path d="M2881 1293 c0 -7 -7 -13 -15 -13 -20 0 -37 -25 -30 -44 8 -20 43 -21
50 -2 3 8 4 27 1 43 -2 15 -5 22 -6 16z m-8 -38 c7 -16 -8 -29 -23 -20 -10 6
-2 35 10 35 4 0 10 -7 13 -15z"/>
<path d="M3142 1260 c0 -25 2 -39 5 -32 4 10 8 10 21 0 15 -12 16 -11 3 5 -11
14 -11 20 0 35 13 15 12 16 -3 4 -14 -11 -17 -10 -21 10 -2 13 -5 3 -5 -22z"/>
<path d="M2171 1280 c0 -8 6 -26 13 -38 l13 -24 13 31 c7 18 10 34 8 37 -3 3
-9 -8 -13 -23 l-7 -28 -13 30 c-7 17 -14 23 -14 15z"/>
<path d="M2932 1255 c11 -33 28 -39 28 -9 0 8 -4 12 -10 9 -5 -3 -10 3 -10 14
0 12 -4 21 -9 21 -5 0 -5 -15 1 -35z"/>
<path d="M2960 1280 c0 -5 4 -10 9 -10 5 0 12 -12 15 -26 8 -31 13 -28 26 15
5 19 5 29 -1 26 -5 -4 -9 -14 -10 -23 0 -13 -3 -12 -11 6 -11 22 -28 30 -28
12z"/>
<path d="M2241 1267 c-16 -20 -3 -47 23 -46 16 1 17 2 4 6 -10 2 -18 13 -18
24 0 20 15 26 23 9 3 -6 4 -5 3 2 -3 18 -22 20 -35 5z"/>
<path d="M2304 1266 c-3 -8 -4 -23 -1 -33 3 -12 5 -9 6 9 0 14 7 29 14 31 9 4
9 6 -1 6 -7 1 -15 -5 -18 -13z"/>
<path d="M2434 1265 c-9 -23 3 -45 23 -44 17 1 17 2 1 6 -19 5 -25 43 -8 43 6
0 10 -4 10 -10 0 -5 5 -10 11 -10 8 0 8 5 -1 15 -7 8 -17 15 -22 15 -5 0 -11
-7 -14 -15z"/>
<path d="M2781 1267 c-16 -20 -3 -47 23 -46 16 1 17 2 4 6 -10 2 -18 13 -18
24 0 20 15 26 23 9 3 -6 4 -5 3 2 -3 18 -22 20 -35 5z"/>
<path d="M3031 1262 c-8 -15 -7 -23 4 -32 21 -18 47 -4 43 22 -4 29 -34 35
-47 10z m34 -12 c0 -7 -6 -15 -12 -17 -8 -3 -13 4 -13 17 0 13 5 20 13 18 6
-3 12 -11 12 -18z"/>
<path d="M3103 1273 c-7 -2 -12 -17 -12 -31 1 -21 2 -23 6 -7 3 11 10 26 15
33 11 13 10 13 -9 5z"/>
<path d="M3194 1265 c-9 -23 3 -45 23 -44 17 1 17 2 1 6 -10 2 -18 13 -18 24
0 21 16 26 23 7 2 -7 8 -10 12 -6 10 10 -3 28 -21 28 -8 0 -17 -7 -20 -15z"/>
<path d="M3263 1273 c-7 -2 -12 -17 -12 -31 1 -21 2 -23 6 -7 3 11 10 26 15
33 11 13 10 13 -9 5z"/>
<path d="M3296 1271 c-3 -5 1 -14 10 -21 12 -11 12 -15 2 -21 -10 -7 -9 -9 5
-9 9 0 17 6 17 14 0 8 -8 17 -17 21 -17 7 -16 8 2 15 16 7 17 9 3 9 -9 1 -19
-3 -22 -8z"/>
<path d="M2342 1245 c0 -16 2 -22 5 -12 2 9 2 23 0 30 -3 6 -5 -1 -5 -18z"/>
<path d="M2402 1245 c0 -16 2 -22 5 -12 2 9 2 23 0 30 -3 6 -5 -1 -5 -18z"/>
<path d="M2702 1245 c0 -16 2 -22 5 -12 2 9 2 23 0 30 -3 6 -5 -1 -5 -18z"/>
<path d="M2678 1073 c-2 -5 -3 -30 -3 -57 0 -45 2 -49 25 -51 32 -3 50 11 50
40 0 26 -24 50 -40 40 -5 -3 -10 1 -10 9 0 16 -17 31 -22 19z m47 -68 c0 -10
-6 -20 -12 -22 -8 -3 -13 5 -13 22 0 17 5 25 13 23 6 -3 12 -13 12 -23z"/>
<path d="M3125 1070 c-3 -5 1 -10 10 -10 9 0 13 5 10 10 -3 6 -8 10 -10 10 -2
0 -7 -4 -10 -10z"/>
<path d="M2180 1015 c0 -30 5 -55 10 -55 6 0 10 11 10 25 0 19 5 25 23 26 l22
0 -22 9 c-28 12 -30 30 -3 30 11 0 20 5 20 10 0 6 -13 10 -30 10 -30 0 -30 -1
-30 -55z"/>
<path d="M2540 1015 c0 -40 -4 -57 -15 -61 -8 -4 -12 -10 -9 -15 3 -5 13 -5
25 1 15 9 19 22 19 70 0 33 -4 60 -10 60 -5 0 -10 -25 -10 -55z"/>
<path d="M2810 1014 c0 -34 4 -53 10 -49 6 3 10 12 10 18 0 7 10 17 22 22 45
20 31 65 -19 65 -21 0 -23 -5 -23 -56z m42 21 c0 -5 -5 -11 -11 -13 -6 -2 -11
4 -11 13 0 9 5 15 11 13 6 -2 11 -8 11 -13z"/>
<path d="M3063 1048 c-20 -33 14 -105 39 -80 9 9 9 12 0 12 -7 0 -12 11 -12
25 0 14 5 25 11 25 8 0 8 5 -1 15 -15 18 -26 19 -37 3z"/>
<path d="M2260 1002 c0 -26 4 -41 10 -37 6 3 10 17 10 31 0 14 7 27 15 30 24
9 17 22 -10 20 -23 -1 -25 -5 -25 -44z"/>
<path d="M2332 1038 c-7 -7 -12 -22 -12 -35 0 -29 44 -53 62 -35 9 9 7 12 -9
12 -12 0 -25 5 -28 10 -4 6 5 10 19 10 15 0 26 6 26 13 0 16 -20 37 -35 37 -6
0 -16 -5 -23 -12z m38 -18 c0 -5 -4 -10 -10 -10 -5 0 -10 5 -10 10 0 6 5 10
10 10 6 0 10 -4 10 -10z"/>
<path d="M2422 1038 c-33 -33 0 -90 41 -70 21 10 21 11 -5 11 -35 1 -37 21 -3
21 14 0 25 6 25 13 0 16 -20 37 -35 37 -6 0 -16 -5 -23 -12z m38 -18 c0 -5 -7
-10 -15 -10 -8 0 -15 5 -15 10 0 6 7 10 15 10 8 0 15 -4 15 -10z"/>
<path d="M2598 1039 c-33 -19 -13 -79 26 -79 10 0 36 32 36 45 0 14 -27 45
-38 45 -4 0 -15 -5 -24 -11z m32 -34 c0 -26 -14 -33 -25 -15 -9 14 1 40 15 40
5 0 10 -11 10 -25z"/>
<path d="M2906 1034 c-9 -8 -16 -22 -16 -29 0 -13 26 -45 36 -45 3 0 14 5 25
10 25 14 25 56 0 70 -25 13 -27 13 -45 -6z m39 -29 c0 -10 -6 -20 -12 -22 -8
-3 -13 5 -13 22 0 17 5 25 13 23 6 -3 12 -13 12 -23z"/>
<path d="M2990 1036 c-9 -12 -7 -18 10 -33 l21 -18 -23 -6 c-20 -6 -21 -7 -5
-14 40 -17 65 24 30 51 -17 13 -17 13 0 14 10 0 15 5 12 10 -9 14 -31 12 -45
-4z"/>
<path d="M3129 1047 c-4 -36 -1 -77 7 -79 13 -4 17 63 5 75 -6 6 -11 8 -12 4z"/>
<path d="M3170 1008 c0 -46 18 -60 22 -16 4 42 28 50 28 9 0 -16 5 -33 11 -36
7 -5 9 8 7 37 -3 41 -4 43 -35 43 -31 0 -33 -2 -33 -37z"/>
<path d="M3273 1037 c-5 -6 -9 -32 -9 -57 1 -43 2 -45 31 -45 23 0 31 5 33 23
3 17 -1 22 -20 22 l-22 0 22 16 c30 21 29 49 -2 52 -13 1 -28 -4 -33 -11z m32
-17 c3 -5 -1 -10 -9 -10 -9 0 -16 5 -16 10 0 6 4 10 9 10 6 0 13 -4 16 -10z
m15 -64 c0 -9 -30 -14 -35 -6 -4 6 3 10 14 10 12 0 21 -2 21 -4z"/>
<path d="M2177 913 c-4 -3 -6 -22 -6 -42 1 -20 3 -28 6 -19 2 9 12 19 21 21
15 4 15 5 0 6 -10 0 -18 7 -18 15 0 8 8 17 18 19 14 4 14 5 1 6 -9 0 -19 -2
-22 -6z"/>
<path d="M2581 878 c1 -24 3 -35 6 -26 2 9 12 19 21 21 15 4 15 5 0 6 -10 0
-18 7 -18 15 0 8 8 17 18 19 13 4 11 5 -5 6 -21 1 -23 -3 -22 -41z"/>
<path d="M2912 883 c2 -30 8 -39 24 -41 13 -2 24 4 28 14 7 19 -10 44 -31 44
-8 0 -11 5 -8 10 3 6 1 10 -5 10 -7 0 -10 -15 -8 -37z m43 -13 c0 -7 -6 -15
-12 -17 -8 -3 -13 4 -13 17 0 13 5 20 13 18 6 -3 12 -11 12 -18z"/>
<path d="M3011 878 c1 -24 3 -35 6 -25 2 9 11 17 18 17 21 0 28 19 15 35 -24
29 -40 17 -39 -27z m31 17 c0 -5 -5 -11 -11 -13 -6 -2 -11 4 -11 13 0 9 5 15
11 13 6 -2 11 -8 11 -13z"/>
<path d="M2818 865 c-2 -25 0 -45 4 -45 5 0 8 20 8 45 0 25 -2 45 -4 45 -2 0
-6 -20 -8 -45z"/>
<path d="M3188 905 c-6 -7 3 -65 11 -65 7 0 7 58 -1 65 -2 3 -7 3 -10 0z"/>
<path d="M2230 885 c-16 -20 -6 -45 19 -45 23 0 32 18 19 43 -11 21 -22 22
-38 2z m30 -15 c0 -21 -15 -27 -25 -10 -7 12 2 30 16 30 5 0 9 -9 9 -20z"/>
<path d="M2334 885 c-9 -23 3 -45 23 -44 17 1 17 2 1 6 -10 2 -18 13 -18 24 0
21 16 26 23 7 2 -7 8 -10 12 -6 10 10 -3 28 -21 28 -8 0 -17 -7 -20 -15z"/>
<path d="M2445 881 c-8 -28 1 -41 28 -40 17 1 18 2 5 6 -10 2 -18 13 -18 24 0
20 15 26 23 9 3 -6 4 -5 3 2 -4 22 -34 21 -41 -1z"/>
<path d="M2513 893 c-7 -2 -13 -16 -13 -29 0 -15 4 -23 10 -19 6 4 8 10 5 15
-3 5 2 16 11 24 15 16 11 19 -13 9z"/>
<path d="M2643 893 c-7 -2 -12 -17 -12 -31 1 -21 2 -23 6 -7 3 11 10 26 15 33
11 13 10 13 -9 5z"/>
<path d="M2675 881 c-8 -28 1 -41 28 -40 17 1 18 2 5 6 -10 2 -18 13 -18 24 0
20 15 26 23 9 3 -6 4 -5 3 2 -4 22 -34 21 -41 -1z"/>
<path d="M2740 885 c-17 -21 -5 -45 22 -44 17 1 18 2 6 6 -10 2 -18 13 -18 24
0 20 15 26 23 9 3 -6 4 -5 3 2 -4 18 -22 20 -36 3z"/>
<path d="M2854 886 c-9 -24 4 -48 23 -44 12 2 18 12 18 28 0 29 -32 41 -41 16z
m36 -16 c0 -11 -7 -20 -15 -20 -8 0 -15 9 -15 20 0 11 7 20 15 20 8 0 15 -9
15 -20z"/>
<path d="M3074 886 c-9 -24 4 -48 23 -44 12 2 18 12 18 28 0 29 -32 41 -41 16z
m36 -16 c0 -11 -7 -20 -15 -20 -15 0 -21 21 -8 33 12 13 23 7 23 -13z"/>
<path d="M3136 891 c-3 -5 1 -14 10 -21 12 -11 12 -15 2 -21 -10 -7 -9 -9 5
-9 9 0 17 6 17 14 0 8 -8 17 -17 21 -17 7 -16 8 2 15 16 7 17 9 3 9 -9 1 -19
-3 -22 -8z"/>
<path d="M3263 893 c-7 -2 -13 -17 -12 -31 l1 -27 7 24 c9 35 29 37 34 4 l5
-28 -2 29 c-1 30 -11 38 -33 29z"/>
<path d="M3317 863 c-5 -42 4 -59 27 -50 22 9 20 37 -1 37 -17 1 -17 1 0 11
23 13 22 39 -2 39 -14 0 -20 -9 -24 -37z m33 17 c0 -5 -4 -10 -10 -10 -5 0
-10 5 -10 10 0 6 5 10 10 10 6 0 10 -4 10 -10z m0 -50 c0 -5 -7 -10 -15 -10
-8 0 -15 5 -15 10 0 6 7 10 15 10 8 0 15 -4 15 -10z"/>
<path d="M2292 865 c0 -16 2 -22 5 -12 2 9 2 23 0 30 -3 6 -5 -1 -5 -18z"/>
<path d="M2391 880 c0 -8 4 -22 9 -30 9 -13 11 -13 20 0 5 8 9 22 9 30 -1 11
-3 10 -6 -2 -2 -10 -8 -18 -13 -18 -5 0 -11 8 -13 18 -3 12 -5 13 -6 2z"/>
<path d="M3220 870 c0 -11 5 -20 10 -20 6 0 10 9 10 20 0 11 -4 20 -10 20 -5
0 -10 -9 -10 -20z"/>
<path d="M2355 678 c-9 -24 -1 -103 10 -103 14 0 19 95 6 108 -7 7 -12 5 -16
-5z"/>
<path d="M2400 630 c0 -33 4 -60 10 -60 6 0 10 27 10 60 0 33 -4 60 -10 60 -6
0 -10 -27 -10 -60z"/>
<path d="M2714 672 c-4 -12 -10 -19 -16 -16 -14 9 -38 -16 -38 -41 0 -29 18
-43 50 -40 22 1 25 7 28 50 3 52 -14 86 -24 47z m3 -48 c8 -21 -13 -42 -28
-27 -13 13 -5 43 11 43 6 0 13 -7 17 -16z"/>
<path d="M2910 680 c0 -5 5 -10 10 -10 6 0 10 5 10 10 0 6 -4 10 -10 10 -5 0
-10 -4 -10 -10z"/>
<path d="M2182 668 c-29 -29 -1 -103 36 -96 21 4 27 26 6 24 -21 -1 -39 26
-31 48 4 9 18 16 32 16 15 0 24 4 20 10 -9 14 -48 13 -63 -2z"/>
<path d="M2800 624 c0 -34 4 -53 10 -49 6 3 10 15 10 26 0 12 7 19 20 19 13 0
20 -7 20 -19 0 -11 5 -23 10 -26 6 -4 10 15 10 49 0 31 -4 56 -10 56 -5 0 -10
-9 -10 -20 0 -13 -7 -20 -20 -20 -13 0 -20 7 -20 20 0 11 -4 20 -10 20 -5 0
-10 -25 -10 -56z"/>
<path d="M2275 651 c-3 -5 5 -11 17 -13 22 -4 22 -5 -4 -16 -16 -6 -28 -18
-28 -27 0 -16 1 -17 43 -19 25 -2 27 1 27 35 0 24 -5 39 -16 43 -22 8 -32 8
-39 -3z m30 -51 c-3 -5 -10 -10 -16 -10 -5 0 -9 5 -9 10 0 6 7 10 16 10 8 0
12 -4 9 -10z"/>
<path d="M2495 650 c-3 -5 1 -10 9 -10 9 0 16 -4 16 -10 0 -5 -9 -10 -20 -10
-13 0 -20 -7 -20 -19 0 -25 9 -30 43 -24 21 4 27 11 27 32 0 40 -38 69 -55 41z
m30 -50 c-3 -5 -10 -10 -16 -10 -5 0 -9 5 -9 10 0 6 7 10 16 10 8 0 12 -4 9
-10z"/>
<path d="M2570 618 c0 -46 18 -60 22 -16 4 42 28 50 28 9 0 -16 5 -33 11 -36
7 -5 9 8 7 37 -3 41 -4 43 -35 43 -31 0 -33 -2 -33 -37z"/>
<path d="M2953 644 c-7 -19 1 -65 12 -65 6 0 11 11 13 23 2 13 11 29 20 36 9
6 14 12 11 13 -32 6 -52 3 -56 -7z"/>
<path d="M3032 648 c-33 -33 0 -90 41 -70 21 10 21 11 -5 11 -35 1 -37 21 -3
21 14 0 25 6 25 13 0 16 -20 37 -35 37 -6 0 -16 -5 -23 -12z m33 -18 c-3 -5
-10 -10 -16 -10 -5 0 -9 5 -9 10 0 6 7 10 16 10 8 0 12 -4 9 -10z"/>
<path d="M2910 610 c0 -22 5 -40 10 -40 6 0 10 18 10 40 0 22 -4 40 -10 40 -5
0 -10 -18 -10 -40z"/>
<path d="M2187 523 c-4 -3 -7 -22 -7 -40 0 -32 2 -34 28 -31 19 2 28 9 30 26
5 36 -30 67 -51 45z m38 -34 c0 -15 -7 -25 -17 -27 -13 -3 -18 3 -18 21 0 13
3 27 7 31 13 12 28 -1 28 -25z"/>
<path d="M2516 514 c-9 -8 -16 -21 -16 -28 0 -20 27 -38 47 -33 15 4 14 5 -3
6 -23 1 -39 26 -28 43 3 5 16 13 28 18 16 7 17 9 4 9 -9 1 -24 -6 -32 -15z"/>
<path d="M2633 490 c0 -25 2 -35 4 -22 2 12 2 32 0 45 -2 12 -4 2 -4 -23z"/>
<path d="M2663 490 c0 -25 2 -35 4 -22 2 12 2 32 0 45 -2 12 -4 2 -4 -23z"/>
<path d="M2717 523 c-2 -5 -5 -23 -5 -42 -1 -32 0 -33 17 -15 16 17 16 20 3
30 -13 10 -13 13 4 22 16 10 17 11 2 12 -9 0 -19 -3 -21 -7z"/>
<path d="M2440 487 c0 -20 3 -37 8 -37 9 0 8 57 -1 67 -4 3 -7 -10 -7 -30z"/>
<path d="M2913 485 c0 -22 2 -30 4 -17 2 12 2 30 0 40 -3 9 -5 -1 -4 -23z"/>
<path d="M2953 485 c0 -19 3 -35 8 -35 5 0 9 16 9 35 0 19 -4 35 -8 35 -4 0
-8 -16 -9 -35z"/>
<path d="M2262 480 c0 -19 2 -27 5 -17 2 9 2 25 0 35 -3 9 -5 1 -5 -18z"/>
<path d="M2294 496 c-3 -8 -4 -23 -1 -33 3 -12 5 -9 6 9 0 14 7 29 14 31 9 4
9 6 -1 6 -7 1 -15 -5 -18 -13z"/>
<path d="M2334 495 c-9 -23 3 -45 23 -44 17 1 17 2 1 6 -19 5 -25 43 -8 43 6
0 10 -4 10 -10 0 -5 5 -10 11 -10 8 0 8 5 -1 15 -7 8 -17 15 -22 15 -5 0 -11
-7 -14 -15z"/>
<path d="M2394 495 c-9 -23 3 -45 23 -44 17 1 17 2 1 6 -21 5 -24 39 -5 46 9
4 9 6 -1 6 -7 1 -15 -6 -18 -14z"/>
<path d="M2588 503 c15 -6 16 -43 1 -43 -5 0 -7 5 -4 10 3 6 1 10 -4 10 -6 0
-11 -7 -11 -15 0 -17 35 -21 45 -5 10 17 -5 50 -23 49 -11 0 -12 -3 -4 -6z"/>
<path d="M2774 496 c-9 -24 4 -48 23 -44 12 2 18 12 18 28 0 29 -32 41 -41 16z
m31 -16 c0 -7 -6 -15 -12 -17 -8 -3 -13 4 -13 17 0 13 5 20 13 18 6 -3 12 -11
12 -18z"/>
<path d="M2843 503 c-7 -2 -12 -17 -12 -31 1 -21 2 -23 6 -7 3 11 10 26 15 33
11 13 10 13 -9 5z"/>
<path d="M3023 503 c-7 -2 -12 -17 -12 -31 1 -21 2 -23 6 -7 3 11 10 26 15 33
11 13 10 13 -9 5z"/>
<path d="M3054 496 c-9 -23 3 -46 23 -45 17 1 17 2 1 6 -20 5 -20 5 -12 27 3
9 10 16 16 16 5 0 6 -4 3 -10 -3 -5 -1 -10 5 -10 18 0 6 25 -13 28 -10 2 -20
-4 -23 -12z"/>
<path d="M2982 475 c0 -16 2 -22 5 -12 2 9 2 23 0 30 -3 6 -5 -1 -5 -18z"/>
<path d="M1870 250 c0 -55 11 -67 55 -56 22 6 25 12 25 51 0 25 -4 45 -10 45
-5 0 -10 -18 -10 -40 0 -33 -3 -40 -20 -40 -17 0 -20 7 -20 39 0 22 -4 43 -10
46 -6 4 -10 -13 -10 -45z"/>
<path d="M2070 245 c0 -30 5 -55 10 -55 6 0 10 25 10 55 0 30 -4 55 -10 55 -5
0 -10 -25 -10 -55z"/>
<path d="M2120 290 c0 -5 5 -10 10 -10 6 0 10 5 10 10 0 6 -4 10 -10 10 -5 0
-10 -4 -10 -10z"/>
<path d="M2310 290 c0 -5 5 -10 10 -10 6 0 10 5 10 10 0 6 -4 10 -10 10 -5 0
-10 -4 -10 -10z"/>
<path d="M2550 286 c0 -8 -10 -16 -22 -18 -19 -2 -23 -9 -23 -38 0 -32 2 -35
33 -37 l32 -1 0 54 c0 30 -4 54 -10 54 -5 0 -10 -6 -10 -14z m0 -56 c0 -11 -7
-20 -15 -20 -8 0 -15 9 -15 20 0 11 7 20 15 20 8 0 15 -9 15 -20z"/>
<path d="M2636 293 c-3 -3 -6 -30 -6 -60 0 -29 -4 -53 -10 -53 -5 0 -10 -4
-10 -10 0 -18 29 -11 40 9 20 39 9 137 -14 114z"/>
<path d="M2770 247 c0 -53 1 -54 30 -55 20 0 33 6 40 19 14 25 -4 59 -30 59
-11 0 -20 7 -20 15 0 8 -4 15 -10 15 -5 0 -10 -24 -10 -53z m50 -17 c0 -11 -4
-20 -9 -20 -14 0 -23 18 -16 30 10 17 25 11 25 -10z"/>
<path d="M2354 273 c-16 -29 -3 -77 24 -81 12 -2 22 1 22 7 0 6 -7 11 -15 11
-21 0 -19 30 3 46 15 12 15 13 0 14 -9 0 -18 5 -20 10 -2 6 -8 2 -14 -7z"/>
<path d="M1980 231 c0 -23 5 -41 10 -41 6 0 10 14 10 30 0 20 5 30 15 30 10 0
15 -10 15 -30 0 -16 5 -30 11 -30 6 0 9 16 7 38 -3 34 -6 37 -35 40 -32 3 -33
2 -33 -37z"/>
<path d="M2120 230 c0 -22 5 -40 10 -40 6 0 10 18 10 40 0 22 -4 40 -10 40 -5
0 -10 -18 -10 -40z"/>
<path d="M2160 228 c0 -43 17 -52 22 -11 4 39 28 42 28 4 0 -38 17 -41 22 -4
4 39 28 42 28 4 0 -17 5 -31 10 -31 6 0 10 18 10 39 l0 40 -60 -1 -60 -1 0
-39z"/>
<path d="M2310 230 c0 -22 5 -40 10 -40 6 0 10 18 10 40 0 22 -4 40 -10 40 -5
0 -10 -18 -10 -40z"/>
<path d="M2414 246 c-8 -32 10 -56 42 -56 33 0 30 18 -3 23 l-28 4 28 2 c23 1
28 5 25 24 -2 16 -11 23 -30 25 -22 3 -29 -2 -34 -22z m41 4 c3 -5 -1 -10 -10
-10 -9 0 -13 5 -10 10 3 6 8 10 10 10 2 0 7 -4 10 -10z"/>
<path d="M2684 256 c-3 -8 -4 -25 -2 -38 2 -18 9 -23 33 -23 28 0 30 3 30 35
0 31 -3 35 -28 38 -17 2 -29 -2 -33 -12z m46 -26 c0 -11 -7 -20 -15 -20 -8 0
-15 9 -15 20 0 11 7 20 15 20 8 0 15 -9 15 -20z"/>
<path d="M2867 263 c-13 -13 -7 -32 13 -38 11 -4 18 -10 15 -15 -3 -5 -12 -7
-20 -3 -8 3 -15 0 -15 -7 0 -6 11 -10 27 -8 35 4 45 37 14 45 -11 3 -18 9 -16
14 3 4 12 6 20 2 8 -3 15 0 15 6 0 12 -42 15 -53 4z"/>
<path d="M1847 133 c-10 -9 -8 -63 2 -63 4 0 8 12 7 27 -1 15 5 28 13 31 10 3
12 0 8 -12 -4 -9 -2 -16 3 -16 6 0 10 9 10 20 0 20 -28 28 -43 13z"/>
<path d="M2091 109 c-1 -26 4 -39 15 -43 25 -9 44 13 43 48 l-2 31 -6 -35 c-4
-22 -12 -35 -21 -35 -9 0 -17 13 -21 35 l-6 35 -2 -36z"/>
<path d="M2233 105 c0 -22 2 -30 4 -17 2 12 2 30 0 40 -3 9 -5 -1 -4 -23z"/>
<path d="M2550 130 c-2 -8 -3 -24 -4 -34 -1 -11 -7 -21 -15 -24 -10 -3 -13 2
-9 22 3 14 1 26 -4 26 -12 0 -6 -53 7 -57 22 -6 36 15 32 48 -2 19 -5 27 -7
19z"/>
<path d="M2602 108 c-1 -20 -5 -45 -8 -55 -5 -14 -4 -15 5 -7 7 7 11 29 8 55
-3 42 -4 42 -5 7z"/>
<path d="M2690 108 c0 -25 5 -38 17 -42 20 -8 44 19 36 40 -9 24 -20 15 -15
-12 4 -20 1 -25 -9 -22 -8 3 -14 16 -14 31 -1 41 -15 45 -15 5z"/>
<path d="M2020 101 c0 -17 4 -32 8 -35 4 -2 8 11 8 30 0 19 -4 34 -8 34 -4 0
-8 -13 -8 -29z"/>
<path d="M2410 102 c0 -17 4 -33 9 -36 10 -6 8 51 -3 61 -3 3 -6 -8 -6 -25z"/>
<path d="M1906 103 c-4 -9 0 -23 9 -32 13 -14 17 -14 31 1 9 9 14 24 11 32 -8
21 -43 20 -51 -1z m40 -4 c3 -6 1 -16 -5 -22 -9 -9 -14 -8 -21 3 -9 15 -4 30
10 30 5 0 12 -5 16 -11z"/>
<path d="M1970 110 c0 -6 7 -13 15 -16 20 -8 19 -21 -2 -27 -16 -4 -16 -5 -1
-6 27 -2 32 19 9 40 -12 11 -21 15 -21 9z"/>
<path d="M2167 113 c-11 -10 -8 -43 3 -43 6 0 10 7 8 16 -2 10 2 19 9 21 6 2
13 -6 16 -19 4 -20 4 -20 6 5 1 20 -4 27 -17 27 -10 0 -22 -3 -25 -7z"/>
<path d="M2262 95 c0 -16 2 -22 5 -12 2 9 2 23 0 30 -3 6 -5 -1 -5 -18z"/>
<path d="M2287 113 c-10 -9 -8 -43 2 -43 5 0 9 11 9 25 0 27 -1 28 -11 18z"/>
<path d="M2318 95 c6 -31 8 -31 14 0 3 16 1 25 -7 25 -8 0 -10 -9 -7 -25z"/>
<path d="M2358 93 c5 -21 7 -23 10 -9 2 10 0 22 -6 28 -6 6 -7 0 -4 -19z"/>
<path d="M2382 95 c0 -16 2 -22 5 -12 2 9 2 23 0 30 -3 6 -5 -1 -5 -18z"/>
<path d="M2452 93 c2 -18 9 -28 21 -29 12 -1 13 -1 2 3 -19 6 -20 23 0 23 8 0
15 7 15 15 0 8 -9 15 -21 15 -16 0 -20 -5 -17 -27z"/>
<path d="M2630 96 c0 -25 15 -37 38 -28 13 5 17 38 4 46 -5 3 -8 -4 -8 -14 1
-11 -3 -19 -9 -19 -5 0 -10 9 -9 19 0 11 -3 20 -8 20 -4 0 -8 -11 -8 -24z"/>
<path d="M2760 112 c0 -4 6 -14 12 -20 10 -10 10 -15 -2 -22 -8 -5 -10 -10 -5
-10 6 0 17 5 25 10 12 8 11 12 -8 30 -12 11 -22 17 -22 12z"/>
</g>
</svg>
